<svg width="88" height="13" viewBox="0 0 88 13" fill="none" xmlns="http://www.w3.org/2000/svg">
<path d="M6.40718 0.790527L8.24676 4.51731L12.3605 5.1186L9.38385 8.01786L10.0863 12.1138L6.40718 10.1789L2.72803 12.1138L3.43052 8.01786L0.453857 5.1186L4.56761 4.51731L6.40718 0.790527Z" fill="#FF971D"/>
<path d="M25.3139 0.790527L27.1534 4.51731L31.2672 5.1186L28.2905 8.01786L28.993 12.1138L25.3139 10.1789L21.6347 12.1138L22.3372 8.01786L19.3605 5.1186L23.4743 4.51731L25.3139 0.790527Z" fill="#FF971D"/>
<path d="M44.2205 0.790527L46.0601 4.51731L50.1738 5.1186L47.1971 8.01786L47.8996 12.1138L44.2205 10.1789L40.5413 12.1138L41.2438 8.01786L38.2672 5.1186L42.3809 4.51731L44.2205 0.790527Z" fill="#FF971D"/>
<path d="M63.1272 0.790527L64.9667 4.51731L69.0805 5.1186L66.1038 8.01786L66.8063 12.1138L63.1272 10.1789L59.448 12.1138L60.1505 8.01786L57.1738 5.1186L61.2876 4.51731L63.1272 0.790527Z" fill="#FF971D"/>
<path d="M82.0338 0.790527L83.8733 4.51731L87.9871 5.1186L85.0104 8.01786L85.7129 12.1138L82.0338 10.1789L78.3546 12.1138L79.0571 8.01786L76.0804 5.1186L80.1942 4.51731L82.0338 0.790527Z" fill="#DEDEDE"/>
</svg>
